<svg width="123" height="100" viewBox="0 0 123 100" fill="none" xmlns="http://www.w3.org/2000/svg">
<g id="Icon">
<g id="SVGRepo_iconCarrier">
<g id="Group">
<g id="Group_2">
<path id="Vector" d="M99.8441 79.1291H96.9801V74.1968C96.9801 73.3183 96.2677 72.6058 95.3891 72.6058H93.8167L92.3926 36.1498L93.4574 32.7313H95.3891C96.2677 32.7313 96.9801 32.0189 96.9801 31.1403V27.5794H98.8894C99.6533 27.5794 100.309 27.0366 100.452 26.2863C100.595 25.536 100.185 24.79 99.4748 24.5089L62.0853 9.71232C61.7094 9.56334 61.2907 9.56334 60.9144 9.71232L23.525 24.509C22.8148 24.79 22.4047 25.5361 22.5476 26.2865C22.6906 27.0368 23.3466 27.5795 24.1105 27.5795H26.0197V31.1404C26.0197 32.019 26.732 32.7315 27.6107 32.7315H29.5424L30.6073 36.1496L29.1833 72.6058H27.6109C26.7322 72.6058 26.0199 73.3183 26.0199 74.1968V79.129H23.1559C22.2772 79.129 21.5649 79.8414 21.5649 80.72V87.8081C21.5649 88.6867 22.2772 89.3991 23.1559 89.3991H99.8441C100.723 89.3991 101.435 88.6867 101.435 87.8081V80.72C101.435 79.8416 100.723 79.1291 99.8441 79.1291ZM29.2019 29.5494V27.5795H73.9101C74.7887 27.5795 75.5011 26.8671 75.5011 25.9885C75.5011 25.1099 74.7887 24.3975 73.9101 24.3975H32.4547L61.5 12.9029L93.825 25.6954L93.7981 29.5494H29.2019ZM85.7465 37.5291H89.2621L90.6323 72.6061H84.3766L85.7465 37.5291ZM84.884 32.7316H90.1246L89.6213 34.347H85.3873L84.884 32.7316ZM82.6157 36.1496L81.1917 72.6058H76.4807L75.0566 36.1498L76.1214 32.7313H81.551L82.6157 36.1496ZM68.4103 37.5291H71.9259L73.2961 72.6061H67.0402L68.4103 37.5291ZM67.5477 32.7316H72.7884L72.2851 34.347H68.0509L67.5477 32.7316ZM57.7204 36.1496L58.7852 32.7315H64.2148L65.2796 36.15L63.8556 72.606H59.1443L57.7204 36.1496ZM51.0743 37.5291H54.5898L55.9601 72.6061H49.7042L51.0743 37.5291ZM50.2118 32.7316H55.4523L54.9491 34.347H50.715L50.2118 32.7316ZM47.9438 36.1496L46.5197 72.6058H41.8084L40.3843 36.1496L41.4492 32.7315H46.8789L47.9438 36.1496ZM33.738 37.5291H37.2535L38.6238 72.6061H32.3678L33.738 37.5291ZM32.8755 32.7315H38.116L37.6128 34.3468H33.3787L32.8755 32.7315ZM29.2019 75.788H93.7981V79.1291H29.2019V75.788ZM98.2531 86.2174H24.747V82.3113H98.2529L98.2531 86.2174Z" fill="white" stroke="white" stroke-width="0.831169"/>
</g>
</g>
<g id="Group_3">
<g id="Group_4">
<path id="Vector_2" d="M81.388 24.3975H79.9561C79.0775 24.3975 78.3651 25.1099 78.3651 25.9885C78.3651 26.867 79.0775 27.5795 79.9561 27.5795H81.388C82.2665 27.5795 82.979 26.867 82.979 25.9885C82.979 25.1099 82.2665 24.3975 81.388 24.3975Z" fill="white" stroke="white" stroke-width="0.831169"/>
</g>
</g>
</g>
</g>
</svg>
