<svg width="42" height="42" viewBox="0 0 42 42" fill="none" xmlns="http://www.w3.org/2000/svg">
<path d="M21 5.25C16.8 5.25 13.125 7.875 11.375 12.075C10.15 15.225 10.15 18.9 11.55 22.05L14.35 28.35V31.85C14.35 33.6 15.75 35 17.5 35C17.5 36.05 18.2 36.75 19.25 36.75H22.4C23.45 36.75 24.15 36.05 24.15 35C25.9 35 27.3 33.6 27.3 31.85V28.35L30.1 22.05C31.5 18.9 31.5 15.225 30.275 12.075C28.875 7.875 25.2 5.25 21 5.25ZM24.15 31.5H18.025V29.75H24.15V31.5ZM27.3 20.65L24.675 26.25H22.75V23.975C23.625 23.8 24.15 23.1 24.15 22.225C24.15 21.175 23.45 20.475 22.4 20.475H19.425C18.375 20.475 17.675 21.175 17.675 22.225C17.675 23.1 18.375 23.8 19.075 23.975V26.25H17.325L14.875 20.65C13.825 18.375 13.825 15.75 14.7 13.475C15.925 10.5 18.2 8.75 21 8.75C23.8 8.75 26.075 10.5 27.3 13.475C28.175 15.75 28.175 18.375 27.3 20.65Z" fill="white"/>
<path d="M6.475 7.525C5.775 6.825 4.725 6.825 4.025 7.525C3.325 8.225 3.325 9.275 4.025 9.975L5.775 11.725C6.125 12.075 6.475 12.25 7 12.25C7.525 12.25 7.875 12.075 8.225 11.725C8.925 11.025 8.925 9.975 8.225 9.275L6.475 7.525Z" fill="white"/>
<path d="M5.25 17.5C6.3 17.5 7 16.8 7 15.75C7 14.7 6.3 14 5.25 14H3.5C2.45 14 1.75 14.7 1.75 15.75C1.75 16.8 2.45 17.5 3.5 17.5H5.25Z" fill="white"/>
<path d="M5.775 19.775L4.025 21.525C3.325 22.225 3.325 23.275 4.025 23.975C4.375 24.325 4.725 24.5 5.25 24.5C5.775 24.5 6.125 24.325 6.475 23.975L8.225 22.225C8.925 21.525 8.925 20.475 8.225 19.775C7.525 19.075 6.475 19.075 5.775 19.775Z" fill="white"/>
<path d="M36.225 19.775C35.525 19.075 34.475 19.075 33.775 19.775C33.075 20.475 33.075 21.525 33.775 22.225L35.525 23.975C35.875 24.325 36.4 24.5 36.75 24.5C37.1 24.5 37.625 24.325 37.975 23.975C38.675 23.275 38.675 22.225 37.975 21.525L36.225 19.775Z" fill="white"/>
<path d="M38.5 14H36.75C35.7 14 35 14.7 35 15.75C35 16.8 35.7 17.5 36.75 17.5H38.5C39.55 17.5 40.25 16.8 40.25 15.75C40.25 14.7 39.55 14 38.5 14Z" fill="white"/>
<path d="M35 12.25C35.525 12.25 35.875 12.075 36.225 11.725L37.975 9.975C38.675 9.275 38.675 8.225 37.975 7.525C37.275 6.825 36.225 6.825 35.525 7.525L33.775 9.275C33.075 9.975 33.075 11.025 33.775 11.725C34.125 12.075 34.475 12.25 35 12.25Z" fill="white"/>
</svg>
